# Blender 3.6.2
# www.blender.org
mtllib SnekBodyCenterLP.mtl
o Castle.002
v -0.138468 -0.057297 0.055612
v -0.138468 0.057297 0.055612
v -0.138468 -0.057297 -0.058982
v -0.138468 0.057297 -0.058982
v -0.138468 0.000000 -0.082715
v -0.138468 0.000000 0.079346
v -0.138468 -0.081030 -0.001685
v -0.138468 0.081030 -0.001685
v -0.138468 0.000000 -0.001685
v -0.138468 -0.074862 -0.032694
v -0.138468 0.074862 -0.032694
v -0.138468 0.000000 -0.043803
v -0.138468 0.074862 0.029324
v -0.138468 0.000000 0.040433
v -0.138468 -0.074862 0.029324
v 0.140667 0.000000 0.082552
v -0.138468 0.031009 -0.076547
v -0.138468 0.031009 0.073178
v -0.138468 0.042118 -0.001685
v -0.138468 0.035950 -0.037635
v -0.138468 0.035950 0.034265
v -0.138468 -0.031009 -0.076547
v -0.138468 -0.031009 0.073178
v -0.138468 -0.042118 -0.001685
v -0.138468 -0.035950 -0.037635
v -0.138468 -0.035950 0.034265
v -0.067094 -0.092626 -0.096242
v -0.067094 0.092626 -0.096242
v -0.067094 -0.092626 0.092872
v -0.067094 0.092626 0.092872
v -0.067094 0.000000 0.132039
v -0.067094 0.000000 -0.135409
v -0.067094 0.130993 -0.001685
v -0.067094 -0.130993 -0.001685
v -0.067094 -0.121021 -0.052859
v -0.067094 0.121021 -0.052859
v -0.067094 0.121021 0.049489
v -0.067094 -0.121021 0.049489
v -0.067094 0.050129 0.121860
v -0.067094 0.050129 -0.125229
v -0.067094 -0.050129 -0.125230
v -0.067094 -0.050129 0.121860
v 0.138468 -0.057297 0.055612
v 0.138468 0.057297 0.055612
v 0.138468 -0.057297 -0.058982
v 0.138468 0.057297 -0.058982
v 0.138468 0.000000 -0.082715
v 0.138468 0.000000 0.079346
v 0.138468 -0.081030 -0.001685
v 0.138468 0.081030 -0.001685
v 0.138468 0.000000 -0.001685
v 0.138468 -0.074862 -0.032694
v 0.138468 0.074862 -0.032694
v 0.138468 0.000000 -0.043803
v 0.138468 0.074862 0.029324
v 0.138468 0.000000 0.040433
v 0.138468 -0.074862 0.029324
v -0.140667 0.000000 0.082552
v 0.138468 0.031009 -0.076547
v 0.138468 0.031009 0.073178
v 0.138468 0.042118 -0.001685
v 0.138468 0.035950 -0.037635
v 0.138468 0.035950 0.034265
v 0.138468 -0.031009 -0.076547
v 0.138468 -0.031009 0.073178
v 0.138468 -0.042118 -0.001685
v 0.138468 -0.035950 -0.037635
v 0.138468 -0.035950 0.034265
v 0.067094 -0.092626 -0.096242
v 0.067094 0.092626 -0.096242
v 0.067094 -0.092626 0.092872
v 0.067094 0.092626 0.092872
v 0.067094 0.000000 0.132039
v 0.067094 0.000000 -0.135409
v 0.067094 0.130993 -0.001685
v 0.067094 -0.130993 -0.001685
v 0.067094 -0.121021 -0.052859
v 0.067094 0.121021 -0.052859
v 0.067094 0.121021 0.049489
v 0.067094 -0.121021 0.049489
v 0.067094 0.050129 0.121860
v 0.067094 0.050129 -0.125229
v 0.067094 -0.050129 -0.125230
v 0.067094 -0.050129 0.121860
v 0.000000 -0.105487 0.103803
v 0.000000 -0.137826 0.055405
v 0.000000 -0.149182 -0.001685
v 0.000000 -0.137826 -0.058774
v 0.000000 -0.105487 -0.107172
v 0.000000 -0.057089 -0.139511
v 0.000000 0.000000 -0.150866
v 0.000000 0.057089 -0.139510
v 0.000000 0.105487 -0.107172
v 0.000000 0.137826 -0.058774
v 0.000000 0.149182 -0.001685
v 0.000000 0.137826 0.055405
v 0.000000 0.105487 0.103803
v 0.000000 0.057089 0.136141
v 0.000000 0.000000 0.147497
v 0.000000 -0.057089 0.136141
vn -0.4099 0.3507 -0.8420
vn -0.8688 0.1922 -0.4563
vn -0.8666 0.3558 -0.3499
vn -0.4123 0.6460 -0.6424
vn -1.0000 -0.0000 -0.0000
vn -0.8688 0.1922 0.4563
vn -0.8666 0.3558 0.3499
vn -0.8643 0.4658 0.1897
vn -0.4147 -0.8414 0.3466
vn -0.4123 -0.6460 0.6424
vn -0.8666 -0.3558 0.3499
vn -0.8643 -0.4658 0.1897
vn -0.8688 -0.1922 0.4563
vn -0.8698 -0.0000 0.4935
vn -0.4099 -0.3507 -0.8420
vn -0.8688 -0.1922 -0.4563
vn -0.8698 -0.0000 -0.4935
vn -0.4089 -0.0000 -0.9126
vn -0.4147 -0.8414 -0.3466
vn -0.4156 -0.9095 -0.0000
vn -0.8634 -0.5045 -0.0000
vn -0.8643 -0.4658 -0.1897
vn -0.8634 0.5045 -0.0000
vn -0.8643 0.4658 -0.1897
vn -0.4123 -0.6460 -0.6424
vn -0.8666 -0.3558 -0.3499
vn -0.4099 -0.3507 0.8420
vn -0.4089 -0.0000 0.9126
vn -0.4099 0.3507 0.8420
vn -0.4147 0.8414 0.3466
vn -0.4156 0.9095 -0.0000
vn -0.4147 0.8414 -0.3466
vn -0.4123 0.6460 0.6424
vn 0.4099 0.3507 -0.8420
vn 0.4123 0.6460 -0.6424
vn 0.8666 0.3558 -0.3499
vn 0.8688 0.1922 -0.4563
vn 1.0000 -0.0000 -0.0000
vn 0.8643 0.4658 0.1897
vn 0.8666 0.3558 0.3499
vn 0.8688 0.1922 0.4563
vn 0.4147 -0.8414 0.3466
vn 0.8643 -0.4658 0.1897
vn 0.8666 -0.3558 0.3499
vn 0.4123 -0.6460 0.6424
vn 0.8698 -0.0000 0.4935
vn 0.8688 -0.1922 0.4563
vn 0.4099 -0.3507 -0.8420
vn 0.4089 -0.0000 -0.9126
vn 0.8698 -0.0000 -0.4935
vn 0.8688 -0.1922 -0.4563
vn 0.4147 -0.8414 -0.3466
vn 0.8643 -0.4658 -0.1897
vn 0.8634 -0.5045 -0.0000
vn 0.4156 -0.9095 -0.0000
vn 0.8643 0.4658 -0.1897
vn 0.8634 0.5045 -0.0000
vn 0.4123 -0.6460 -0.6424
vn 0.8666 -0.3558 -0.3499
vn 0.4099 -0.3507 0.8420
vn 0.4099 0.3507 0.8420
vn 0.4089 -0.0000 0.9126
vn 0.4156 0.9095 -0.0000
vn 0.4147 0.8414 0.3466
vn 0.4147 0.8414 -0.3466
vn 0.4123 0.6460 0.6424
vn -0.0000 -0.7118 0.7024
vn -0.0000 -0.9257 0.3784
vn -0.0000 -1.0000 -0.0000
vn -0.0000 -0.9257 -0.3784
vn -0.0000 -0.7118 -0.7024
vn -0.0000 -0.3871 -0.9221
vn -0.0000 -0.0000 -1.0000
vn -0.0000 0.3871 -0.9221
vn -0.0000 0.7118 -0.7024
vn -0.0000 0.9257 -0.3784
vn -0.0000 1.0000 -0.0000
vn -0.0000 0.9257 0.3784
vn -0.0000 0.7118 0.7024
vn -0.0000 0.3871 0.9221
vn -0.0000 -0.0000 1.0000
vn -0.0000 -0.3871 0.9221
vt 0.176199 0.342054
vt 0.052193 0.351166
vt 0.057455 0.401795
vt 0.177547 0.395243
vt 0.602305 0.366552
vt 0.569623 0.404166
vt 0.609787 0.404166
vt 0.646893 0.388796
vt 0.149383 0.898875
vt 0.161755 0.830638
vt 0.034969 0.804639
vt 0.022033 0.855481
vt 0.526360 0.315807
vt 0.504116 0.360396
vt 0.532516 0.388796
vt 0.559979 0.347695
vt 0.169102 0.230612
vt 0.042085 0.246994
vt 0.045345 0.299478
vt 0.173872 0.287673
vt 0.577105 0.239862
vt 0.545217 0.273481
vt 0.589705 0.303207
vt 0.619430 0.258720
vt 0.149383 0.101125
vt 0.126830 0.020714
vt 0.000110 0.095775
vt 0.022033 0.144519
vt 0.653050 0.290607
vt 0.634192 0.332933
vt 0.675294 0.360396
vt 0.690664 0.323289
vt 0.675294 0.246019
vt 0.690664 0.283125
vt 0.161755 0.169362
vt 0.034969 0.195361
vt 0.609787 0.202248
vt 0.646893 0.217618
vt 0.126830 0.979286
vt 0.000110 0.904225
vt 0.504116 0.246019
vt 0.488746 0.283125
vt 0.569623 0.202248
vt 0.532516 0.217618
vt 0.488746 0.323289
vt 0.169102 0.769388
vt 0.042085 0.753006
vt 0.045345 0.700522
vt 0.173872 0.712327
vt 0.176199 0.657946
vt 0.052193 0.648834
vt 0.065042 0.500000
vt 0.061660 0.548564
vt 0.178189 0.552251
vt 0.178104 0.500000
vt 0.061660 0.451436
vt 0.178189 0.447749
vt 0.057455 0.598205
vt 0.177547 0.604756
vt 0.312437 0.342054
vt 0.311088 0.395243
vt 0.431181 0.401795
vt 0.436443 0.351166
vt 0.526360 0.113669
vt 0.488746 0.080987
vt 0.488746 0.121151
vt 0.504116 0.158258
vt 0.339253 0.898875
vt 0.466602 0.855481
vt 0.453667 0.804639
vt 0.326881 0.830638
vt 0.602305 0.164414
vt 0.559979 0.145557
vt 0.532516 0.186658
vt 0.569623 0.202028
vt 0.319534 0.230612
vt 0.314763 0.287673
vt 0.443290 0.299478
vt 0.446551 0.246994
vt 0.653050 0.088469
vt 0.619430 0.056581
vt 0.589705 0.101069
vt 0.634192 0.130795
vt 0.339253 0.101125
vt 0.466602 0.144519
vt 0.488526 0.095775
vt 0.361805 0.020714
vt 0.577105 0.037724
vt 0.532516 0.015480
vt 0.504116 0.043880
vt 0.545217 0.071343
vt 0.609787 0.000110
vt 0.569623 0.000110
vt 0.326881 0.169362
vt 0.453667 0.195361
vt 0.675294 0.043880
vt 0.646893 0.015480
vt 0.361805 0.979286
vt 0.488525 0.904225
vt 0.675294 0.158258
vt 0.646893 0.186658
vt 0.690664 0.080987
vt 0.690664 0.121151
vt 0.609787 0.202028
vt 0.446550 0.753006
vt 0.319534 0.769388
vt 0.443290 0.700522
vt 0.436443 0.648834
vt 0.312437 0.657946
vt 0.314763 0.712327
vt 0.423594 0.500000
vt 0.310532 0.500000
vt 0.310447 0.552251
vt 0.426976 0.548564
vt 0.310447 0.447749
vt 0.426976 0.451436
vt 0.311088 0.604756
vt 0.431181 0.598205
vt 0.244318 0.839541
vt 0.244318 0.912473
vt 0.244318 0.999890
vt 0.244318 0.000110
vt 0.244318 0.087527
vt 0.244318 0.160459
vt 0.244318 0.225048
vt 0.244318 0.284887
vt 0.244318 0.341962
vt 0.244318 0.396186
vt 0.244318 0.448720
vt 0.244318 0.500000
vt 0.244318 0.551280
vt 0.244318 0.603814
vt 0.244318 0.658038
vt 0.244318 0.715113
vt 0.244318 0.774952
s 1
f 40/1/1 17/2/2 4/3/3 28/4/4
f 21/5/5 18/6/6 2/7/7 13/8/8
f 38/9/9 29/10/10 1/11/11 15/12/12
f 26/13/5 23/14/13 6/15/14 14/16/5
f 41/17/15 22/18/16 5/19/17 32/20/18
f 25/21/5 24/22/5 9/23/5 12/24/5
f 35/25/19 34/26/20 7/27/21 10/28/22
f 20/29/5 19/30/5 8/31/23 11/32/24
f 17/33/2 20/29/5 11/32/24 4/34/3
f 27/35/25 35/25/19 10/28/22 3/36/26
f 22/37/16 25/21/5 12/24/5 5/38/17
f 24/22/5 26/13/5 14/16/5 9/23/5
f 34/39/20 38/9/9 15/12/12 7/40/21
f 19/30/5 21/5/5 13/8/8 8/31/23
f 9/23/5 14/16/5 21/5/5 19/30/5
f 5/38/17 12/24/5 20/29/5 17/33/2
f 12/24/5 9/23/5 19/30/5 20/29/5
f 14/16/5 6/15/14 18/6/6 21/5/5
f 32/20/18 5/19/17 17/2/2 40/1/1
f 7/41/21 15/42/12 26/13/5 24/22/5
f 3/43/26 10/44/22 25/21/5 22/37/16
f 10/44/22 7/41/21 24/22/5 25/21/5
f 27/35/25 3/36/26 22/18/16 41/17/15
f 15/42/12 1/45/11 23/14/13 26/13/5
f 1/11/11 29/10/10 42/46/27 23/47/13
f 6/48/14 31/49/28 39/50/29 18/51/6
f 8/52/23 13/53/8 37/54/30 33/55/31
f 4/3/3 11/56/24 36/57/32 28/4/4
f 11/56/24 8/52/23 33/55/31 36/57/32
f 23/47/13 42/46/27 31/49/28 6/48/14
f 13/53/8 2/58/7 30/59/33 37/54/30
f 18/51/6 39/50/29 30/59/33 2/58/7
f 82/60/34 70/61/35 46/62/36 59/63/37
f 63/64/38 55/65/39 44/66/40 60/67/41
f 80/68/42 57/69/43 43/70/44 71/71/45
f 68/72/38 56/73/38 48/74/46 65/75/47
f 83/76/48 74/77/49 47/78/50 64/79/51
f 67/80/38 54/81/38 51/82/38 66/83/38
f 77/84/52 52/85/53 49/86/54 76/87/55
f 62/88/38 53/89/56 50/90/57 61/91/38
f 59/92/37 46/93/36 53/89/56 62/88/38
f 69/94/58 45/95/59 52/85/53 77/84/52
f 64/96/51 47/97/50 54/81/38 67/80/38
f 66/83/38 51/82/38 56/73/38 68/72/38
f 76/98/55 49/99/54 57/69/43 80/68/42
f 61/91/38 50/90/57 55/65/39 63/64/38
f 51/82/38 61/91/38 63/64/38 56/73/38
f 47/97/50 59/92/37 62/88/38 54/81/38
f 54/81/38 62/88/38 61/91/38 51/82/38
f 56/73/38 63/64/38 60/67/41 48/74/46
f 74/77/49 82/60/34 59/63/37 47/78/50
f 49/100/54 66/83/38 68/72/38 57/101/43
f 45/102/59 64/96/51 67/80/38 52/103/53
f 52/103/53 67/80/38 66/83/38 49/100/54
f 69/94/58 83/76/48 64/79/51 45/95/59
f 57/101/43 68/72/38 65/75/47 43/104/44
f 43/70/44 65/105/47 84/106/60 71/71/45
f 48/107/46 60/108/41 81/109/61 73/110/62
f 50/111/57 75/112/63 79/113/64 55/114/39
f 46/62/36 70/61/35 78/115/65 53/116/56
f 53/116/56 78/115/65 75/112/63 50/111/57
f 65/105/47 48/107/46 73/110/62 84/106/60
f 55/114/39 79/113/64 72/117/66 44/118/40
f 60/108/41 44/118/40 72/117/66 81/109/61
f 85/119/67 29/10/10 38/9/9 86/120/68
f 86/120/68 38/9/9 34/39/20 87/121/69
f 87/122/69 34/26/20 35/25/19 88/123/70
f 88/123/70 35/25/19 27/35/25 89/124/71
f 89/124/71 27/35/25 41/17/15 90/125/72
f 90/125/72 41/17/15 32/20/18 91/126/73
f 91/126/73 32/20/18 40/1/1 92/127/74
f 92/127/74 40/1/1 28/4/4 93/128/75
f 93/128/75 28/4/4 36/57/32 94/129/76
f 94/129/76 36/57/32 33/55/31 95/130/77
f 95/130/77 33/55/31 37/54/30 96/131/78
f 96/131/78 37/54/30 30/59/33 97/132/79
f 97/132/79 30/59/33 39/50/29 98/133/80
f 98/133/80 39/50/29 31/49/28 99/134/81
f 99/134/81 31/49/28 42/46/27 100/135/82
f 100/135/82 42/46/27 29/10/10 85/119/67
f 84/106/60 100/135/82 85/119/67 71/71/45
f 73/110/62 99/134/81 100/135/82 84/106/60
f 81/109/61 98/133/80 99/134/81 73/110/62
f 72/117/66 97/132/79 98/133/80 81/109/61
f 79/113/64 96/131/78 97/132/79 72/117/66
f 75/112/63 95/130/77 96/131/78 79/113/64
f 78/115/65 94/129/76 95/130/77 75/112/63
f 70/61/35 93/128/75 94/129/76 78/115/65
f 82/60/34 92/127/74 93/128/75 70/61/35
f 74/77/49 91/126/73 92/127/74 82/60/34
f 83/76/48 90/125/72 91/126/73 74/77/49
f 69/94/58 89/124/71 90/125/72 83/76/48
f 77/84/52 88/123/70 89/124/71 69/94/58
f 76/87/55 87/122/69 88/123/70 77/84/52
f 80/68/42 86/120/68 87/121/69 76/98/55
f 71/71/45 85/119/67 86/120/68 80/68/42
