# Blender 3.6.2
# www.blender.org
mtllib SnekBodyorangeLP.mtl
o SegmentBlueLP
v -0.185386 -0.057297 -0.057297
v -0.185386 0.057297 -0.057297
v -0.185386 -0.057297 0.057297
v -0.185386 0.057297 0.057297
v -0.185386 -0.000000 0.081030
v -0.185386 0.000000 -0.081030
v -0.185386 -0.081030 0.000000
v -0.185386 0.081030 0.000000
v -0.185386 0.000000 0.000000
v 0.093749 0.000000 -0.000000
v -0.185386 -0.074862 0.031009
v 0.093749 0.000000 0.084236
v -0.185386 0.074862 0.031009
v -0.185386 0.000000 0.042118
v -0.185386 0.074862 -0.031009
v -0.185386 0.000000 -0.042118
v -0.185386 -0.074862 -0.031009
v 0.093749 0.000000 -0.084236
v -0.185386 0.031009 0.074862
v -0.185386 0.031009 -0.074862
v -0.185386 0.042118 0.000000
v 0.093749 0.084236 -0.000000
v -0.185386 0.035950 0.035950
v 0.093749 0.071900 0.071900
v 0.093749 0.071900 -0.071900
v -0.185386 0.035950 -0.035950
v -0.185386 -0.031009 0.074862
v -0.185386 -0.031009 -0.074862
v 0.093749 -0.084236 -0.000000
v -0.185386 -0.042118 0.000000
v -0.185386 -0.035950 0.035950
v 0.093749 -0.071900 0.071900
v 0.093749 -0.071900 -0.071900
v -0.185386 -0.035950 -0.035950
v -0.019940 -0.105487 0.105487
v -0.019940 0.105487 0.105487
v -0.019940 -0.105487 -0.105487
v -0.019940 0.105487 -0.105487
v -0.019940 -0.000000 -0.149182
v -0.019940 0.000000 0.149182
v -0.019940 0.149182 -0.000000
v -0.019940 -0.149182 0.000000
v -0.019940 -0.137826 0.057089
v -0.019940 0.137826 0.057089
v -0.019940 0.137826 -0.057089
v -0.019940 -0.137826 -0.057089
v -0.019940 0.057089 -0.137826
v -0.019940 0.057089 0.137826
v -0.019940 -0.057089 0.137826
v -0.019940 -0.057089 -0.137826
v 0.074895 -0.113084 -0.113084
v 0.093749 -0.102561 -0.102561
v 0.088227 -0.110627 -0.110627
v 0.093749 0.102561 -0.102561
v 0.074895 0.113084 -0.113084
v 0.088227 0.110627 -0.110627
v 0.093749 -0.102561 0.102561
v 0.074896 -0.113084 0.113084
v 0.088227 -0.110627 0.110627
v 0.074896 0.113084 0.113084
v 0.093749 0.102561 0.102561
v 0.088227 0.110627 0.110627
v 0.074895 -0.000000 -0.159925
v 0.093749 -0.000000 -0.140870
v 0.088227 -0.000000 -0.155229
v 0.074896 0.000000 0.159925
v 0.093749 0.000000 0.140870
v 0.088227 0.000000 0.155228
v 0.074895 -0.159925 0.000000
v 0.093749 -0.140870 -0.000000
v 0.088227 -0.155229 -0.000000
v 0.074895 0.159925 -0.000000
v 0.093749 0.140870 -0.000000
v 0.088227 0.155228 -0.000000
v 0.093749 0.127909 0.064788
v 0.074896 0.147751 0.061201
v 0.088227 0.142757 0.062590
v 0.093749 -0.127909 0.064788
v 0.074896 -0.147751 0.061201
v 0.088227 -0.142757 0.062590
v 0.093749 -0.127909 -0.064788
v 0.074895 -0.147751 -0.061201
v 0.088227 -0.142757 -0.062590
v 0.093749 0.127909 -0.064788
v 0.074895 0.147751 -0.061201
v 0.088227 0.142757 -0.062590
v 0.093749 0.064788 -0.127909
v 0.074895 0.061201 -0.147751
v 0.088227 0.062590 -0.142757
v 0.093749 0.064788 0.127909
v 0.074896 0.061201 0.147751
v 0.088227 0.062590 0.142757
v 0.093749 -0.064788 0.127909
v 0.074896 -0.061201 0.147751
v 0.088227 -0.062590 0.142757
v 0.093749 -0.064788 -0.127909
v 0.074895 -0.061201 -0.147751
v 0.088227 -0.062590 -0.142757
vn 0.0926 0.3692 0.9247
vn 0.0690 0.7054 0.7054
vn -0.2451 0.6855 0.6855
vn -0.2451 0.3710 0.8957
vn -0.7994 0.4248 0.4248
vn -0.7994 0.2299 0.5550
vn -1.0000 -0.0000 -0.0000
vn -0.7994 0.5550 -0.2299
vn -0.7994 0.4248 -0.4248
vn -0.7994 0.2299 -0.5550
vn -0.2451 0.8957 -0.3710
vn 0.0926 0.9247 -0.3692
vn 0.0690 0.7054 -0.7054
vn -0.2451 0.6855 -0.6855
vn -0.2451 -0.8957 -0.3710
vn -0.7994 -0.5550 -0.2299
vn -0.7994 -0.4248 -0.4248
vn -0.2451 -0.6855 -0.6855
vn 0.0690 -0.7054 0.7054
vn 0.0926 -0.3692 0.9247
vn -0.2451 -0.3710 0.8957
vn -0.2451 -0.6855 0.6855
vn -0.2451 -0.0000 -0.9695
vn -0.2451 0.3710 -0.8957
vn 0.0926 0.3692 -0.9247
vn 0.1101 -0.0000 -0.9939
vn -0.7994 -0.0000 -0.6008
vn -0.7994 -0.2299 -0.5550
vn -0.2451 -0.0000 0.9695
vn -0.7994 -0.0000 0.6008
vn -0.7994 -0.2299 0.5550
vn 0.1101 -0.0000 0.9939
vn 1.0000 -0.0000 -0.0000
vn -0.2451 -0.8957 0.3710
vn -0.7994 -0.5550 0.2299
vn -0.7994 -0.6008 -0.0000
vn -0.2451 -0.9695 -0.0000
vn -0.7994 0.5550 0.2299
vn -0.7994 0.6008 -0.0000
vn -0.2451 0.8957 0.3710
vn 0.0926 0.9247 0.3692
vn 0.1101 0.9939 -0.0000
vn -0.2451 0.9695 -0.0000
vn -0.7994 -0.4248 0.4248
vn 0.9721 0.2094 0.1059
vn 0.9682 0.1769 0.1769
vn 0.9721 0.1059 0.2094
vn 0.9721 0.2094 -0.1059
vn 0.9789 0.2042 -0.0000
vn 0.9789 -0.0000 -0.2042
vn 0.9721 0.1059 -0.2094
vn -0.2451 -0.3710 -0.8957
vn 0.0926 -0.3692 -0.9247
vn 0.9789 -0.0000 0.2042
vn 0.9721 -0.1059 0.2094
vn 0.0690 -0.7054 -0.7054
vn 0.1101 -0.9939 -0.0000
vn 0.0926 -0.9247 -0.3692
vn 0.9682 0.1769 -0.1769
vn 0.0926 -0.9247 0.3692
vn 0.9721 -0.2094 -0.1059
vn 0.9789 -0.2042 -0.0000
vn 0.9721 -0.2094 0.1059
vn 0.9682 -0.1769 0.1769
vn 0.9682 -0.1769 -0.1769
vn 0.9721 -0.1059 -0.2094
vn 0.6093 -0.5607 -0.5607
vn 0.6443 -0.7041 -0.2985
vn 0.6093 0.5607 -0.5607
vn 0.6443 0.2985 -0.7041
vn 0.6093 0.5607 0.5607
vn 0.6443 0.7041 0.2985
vn 0.6093 -0.5607 0.5607
vn 0.6443 -0.2985 0.7041
vn 0.6723 -0.0000 -0.7403
vn 0.6443 -0.2985 -0.7041
vn 0.6723 -0.0000 0.7403
vn 0.6443 0.2985 0.7041
vn 0.6723 -0.7403 -0.0000
vn 0.6443 -0.7041 0.2985
vn 0.6723 0.7403 -0.0000
vn 0.6443 0.7041 -0.2985
vt 0.050350 0.701181
vt 0.031072 0.635929
vt 0.126719 0.614382
vt 0.143268 0.669058
vt 0.310218 0.570738
vt 0.320017 0.604359
vt 0.566427 0.401410
vt 0.585092 0.363994
vt 0.597990 0.395132
vt 0.597990 0.428835
vt 0.116432 0.444299
vt 0.019363 0.433620
vt 0.029892 0.366501
vt 0.125293 0.387652
vt 0.265413 0.131786
vt 0.399770 0.278405
vt 0.374756 0.304640
vt 0.225828 0.179247
vt 0.145284 0.880863
vt 0.107793 0.823641
vt 0.192999 0.773283
vt 0.227089 0.821684
vt 0.163927 0.279037
vt 0.141521 0.332396
vt 0.048648 0.301144
vt 0.074400 0.238273
vt 0.523845 0.465138
vt 0.550603 0.436927
vt 0.585092 0.459972
vt 0.561261 0.483804
vt 0.164644 0.722443
vt 0.334354 0.636360
vt 0.352509 0.666657
vt 0.076224 0.763759
vt 0.501864 0.223498
vt 0.504050 0.145858
vt 0.592013 0.163575
vt 0.574296 0.251538
vt 0.460116 0.422556
vt 0.475940 0.387039
vt 0.513272 0.411983
vt 0.488328 0.449314
vt 0.267220 0.867737
vt 0.399598 0.720121
vt 0.428323 0.742341
vt 0.314998 0.913804
vt 0.502698 0.358828
vt 0.530123 0.327265
vt 0.561261 0.340162
vt 0.538215 0.374652
vt 0.116532 0.558232
vt 0.019886 0.568925
vt 0.016370 0.501321
vt 0.113947 0.501253
vt 0.465282 0.340162
vt 0.496420 0.327265
vt 0.374302 0.694730
vt 0.682162 0.103652
vt 0.686611 0.043768
vt 0.720546 0.078138
vt 0.739099 0.122732
vt 0.428553 0.395132
vt 0.441451 0.363994
vt 0.679976 0.181292
vt 0.651936 0.253724
vt 0.532090 0.073426
vt 0.551170 0.016489
vt 0.621677 0.016296
vt 0.609730 0.075612
vt 0.444734 0.133911
vt 0.472206 0.068977
vt 0.312406 0.085530
vt 0.428323 0.255911
vt 0.191859 0.227855
vt 0.105933 0.177705
vt 0.739292 0.193238
vt 0.711820 0.258173
vt 0.465282 0.483804
vt 0.496420 0.496702
vt 0.143472 0.119791
vt 0.229991 0.009581
vt 0.185771 0.064675
vt 0.428553 0.428835
vt 0.441451 0.459972
vt 0.530123 0.496702
vt 0.506576 0.035042
vt 0.353515 0.333570
vt 0.188045 0.935363
vt 0.335458 0.364280
vt 0.321814 0.397136
vt 0.497415 0.283382
vt 0.562350 0.310854
vt 0.302662 0.500990
vt 0.304987 0.465865
vt 0.304408 0.536132
vt 0.632856 0.310661
vt 0.677450 0.292108
vt 0.232707 0.990324
vt 0.311380 0.431099
vt 0.463480 0.249012
vt 0.444927 0.204418
vt 0.130841 0.110866
vt 0.170970 0.057725
vt 0.495781 0.300454
vt 0.452117 0.256566
vt 0.014992 0.363209
vt 0.032595 0.299431
vt 0.455134 0.067343
vt 0.499022 0.023678
vt 0.016199 0.639353
vt 0.004674 0.574243
vt 0.688245 0.026696
vt 0.731910 0.070584
vt 0.132795 0.889819
vt 0.096096 0.834746
vt 0.728892 0.259807
vt 0.685004 0.303471
vt 0.059592 0.231409
vt 0.094080 0.166565
vt 0.428553 0.199316
vt 0.428553 0.130652
vt 0.061535 0.770645
vt 0.034329 0.702988
vt 0.755473 0.127834
vt 0.755473 0.196497
vt 0.219135 0.999885
vt 0.173303 0.942431
vt 0.627754 0.327035
vt 0.559091 0.327035
vt 0.000115 0.501384
vt 0.004097 0.428435
vt 0.556272 0.000115
vt 0.624936 0.000115
vt 0.216393 0.000115
s 1
f 91/1/1 60/2/2 36/3/3 48/4/4
f 48/4/4 36/3/3 4/5/5 19/6/6
f 26/7/7 15/8/8 2/9/9 20/10/10
f 45/11/11 85/12/12 55/13/13 38/14/14
f 46/15/15 17/16/16 1/17/17 37/18/18
f 58/19/19 94/20/20 49/21/21 35/22/22
f 39/23/23 47/24/24 88/25/25 63/26/26
f 34/27/7 16/28/7 6/29/27 28/30/28
f 49/21/21 40/31/29 5/32/30 27/33/31
f 94/20/20 66/34/32 40/31/29 49/21/21
f 33/35/33 18/36/33 10/37/33 29/38/33
f 31/39/7 14/40/7 9/41/7 30/42/7
f 43/43/34 11/44/35 7/45/36 42/46/37
f 23/47/7 13/48/38 8/49/39 21/50/7
f 44/51/40 76/52/41 72/53/42 41/54/43
f 19/55/6 4/56/5 13/48/38 23/47/7
f 35/22/22 3/57/44 11/44/35 43/43/34
f 24/58/33 75/59/45 61/60/46 90/61/47
f 27/62/31 5/63/30 14/40/7 31/39/7
f 29/38/33 10/37/33 12/64/33 32/65/33
f 25/66/33 84/67/48 73/68/49 22/69/33
f 47/24/24 38/14/14 55/13/13 88/25/25
f 64/70/50 87/71/51 25/66/33 18/36/33
f 30/42/7 9/41/7 16/28/7 34/27/7
f 22/69/33 73/68/49 75/59/45 24/58/33
f 42/72/37 7/73/36 17/16/16 46/15/15
f 21/50/7 8/49/39 15/8/8 26/7/7
f 9/41/7 21/50/7 26/7/7 16/28/7
f 50/74/52 39/23/23 63/26/26 97/75/53
f 10/37/33 22/69/33 24/58/33 12/64/33
f 5/63/30 19/55/6 23/47/7 14/40/7
f 18/36/33 25/66/33 22/69/33 10/37/33
f 14/40/7 23/47/7 21/50/7 9/41/7
f 66/34/32 91/1/1 48/4/4 40/31/29
f 16/28/7 26/7/7 20/10/10 6/29/27
f 40/31/29 48/4/4 19/6/6 5/32/30
f 32/65/33 12/64/33 67/76/54 93/77/55
f 7/78/36 30/42/7 34/27/7 17/79/16
f 37/18/18 50/74/52 97/75/53 51/80/56
f 69/81/57 42/72/37 46/15/15 82/82/58
f 3/83/44 27/62/31 31/39/7 11/84/35
f 11/84/35 31/39/7 30/42/7 7/78/36
f 41/54/43 72/53/42 85/12/12 45/11/11
f 36/3/3 60/2/2 76/52/41 44/51/40
f 35/22/22 49/21/21 27/33/31 3/57/44
f 17/79/16 34/27/7 28/30/28 1/85/17
f 87/71/51 54/86/59 84/67/48 25/66/33
f 1/17/17 28/87/28 50/74/52 37/18/18
f 58/19/19 35/22/22 43/43/34 79/88/60
f 12/64/33 24/58/33 90/61/47 67/76/54
f 6/89/27 20/90/10 47/24/24 39/23/23
f 81/91/61 33/35/33 29/38/33 70/92/62
f 8/93/39 41/54/43 45/11/11 15/94/8
f 4/5/5 36/3/3 44/51/40 13/95/38
f 78/96/63 32/65/33 93/77/55 57/97/64
f 70/92/62 29/38/33 32/65/33 78/96/63
f 13/95/38 44/51/40 41/54/43 8/93/39
f 79/88/60 43/43/34 42/46/37 69/98/57
f 28/87/28 6/89/27 39/23/23 50/74/52
f 15/94/8 45/11/11 38/14/14 2/99/9
f 52/100/65 96/101/66 33/35/33 81/91/61
f 20/90/10 2/99/9 38/14/14 47/24/24
f 96/101/66 64/70/50 18/36/33 33/35/33
f 82/82/58 51/80/56 53/102/67 83/103/68
f 83/104/68 53/105/67 52/100/65 81/91/61
f 88/25/25 55/13/13 56/106/69 89/107/70
f 89/108/70 56/109/69 54/86/59 87/71/51
f 76/52/41 60/2/2 62/110/71 77/111/72
f 77/112/72 62/113/71 61/60/46 75/59/45
f 94/20/20 58/19/19 59/114/73 95/115/74
f 95/116/74 59/117/73 57/97/64 93/77/55
f 97/75/53 63/26/26 65/118/75 98/119/76
f 98/120/76 65/121/75 64/70/50 96/101/66
f 91/1/1 66/34/32 68/122/77 92/123/78
f 92/124/78 68/125/77 67/76/54 90/61/47
f 79/88/60 69/98/57 71/126/79 80/127/80
f 80/128/80 71/129/79 70/92/62 78/96/63
f 85/12/12 72/53/42 74/130/81 86/131/82
f 86/132/82 74/133/81 73/68/49 84/67/48
f 72/53/42 76/52/41 77/111/72 74/130/81
f 74/133/81 77/112/72 75/59/45 73/68/49
f 58/19/19 79/88/60 80/127/80 59/114/73
f 59/117/73 80/128/80 78/96/63 57/97/64
f 69/81/57 82/82/58 83/103/68 71/134/79
f 71/129/79 83/104/68 81/91/61 70/92/62
f 55/13/13 85/12/12 86/131/82 56/106/69
f 56/109/69 86/132/82 84/67/48 54/86/59
f 63/26/26 88/25/25 89/107/70 65/118/75
f 65/121/75 89/108/70 87/71/51 64/70/50
f 60/2/2 91/1/1 92/123/78 62/110/71
f 62/113/71 92/124/78 90/61/47 61/60/46
f 66/34/32 94/20/20 95/115/74 68/122/77
f 68/125/77 95/116/74 93/77/55 67/76/54
f 51/80/56 97/75/53 98/119/76 53/102/67
f 53/105/67 98/120/76 96/101/66 52/100/65
f 82/82/58 46/15/15 37/18/18 51/80/56
